<svg height="24" viewBox="0 0 24 24" width="24" xmlns="http://www.w3.org/2000/svg"><path d="m14.3335126 2.85206923 4.710162 2.71949309c.1424662-.14886299.3080815-.28048455.495359-.38926245 1.0664649-.61305769 2.4266867-.24905469 3.0461304.81741026.6130577 1.06646494.2490547 2.42668669-.8174103 3.0461304-.2323534.13356841-.478954.22075729-.7289047.26440655v5.37976252c.2467854.0440923.4901784.1307269.7196609.262645 1.0718334.6188562 1.4354912 1.9777879.816635 3.0432413-.6124763 1.0654535-1.9777879 1.4291113-3.0432413.816635-.2643537-.1519638-.4855046-.3502725-.6592623-.5788472l-4.625393 2.6705502c.1121407.2662468.1741044.5589767.1741044.8664031 0 1.226469-.9965061 2.229363-2.2293631 2.229363-1.2328569 0-2.22936298-.9965061-2.22936298-2.229363 0-.2429544.03869938-.47673.11028058-.6955094l-4.67842508-2.7011693c-.15311815.1708279-.33537237.3209415-.54468653.4425192-1.07285096.6130577-2.43307272.2490547-3.04613041-.8174102-.61305769-1.066465-.24905469-2.4266867.81741026-3.0461304.16238257-.0933457.33157557-.1640394.50392704-.2130503v-5.47938642c-.17454979-.04906791-.34583086-.12028723-.50999953-.21465965-1.06646495-.61305769-1.43046795-1.97966546-.81741026-3.0461304.61305769-1.06646495 1.97966546-1.43046795 3.04613041-.81741026.15202344.08830105.28977272.19165485.41245243.30706475l4.76463327-2.75094299c-.03806112-.16345989-.05818218-.3338731-.05818218-.50905861 0-1.23285691.99650608-2.22936302 2.22936298-2.22936302 1.232857 0 2.2293631.99650611 2.2293631 2.22936302 0 .21620406-.0306466.42513938-.0878401.62270621zm-.4929582.87934174c-.0497302.05456338-.1021386.10664143-.1570191.15602812l6.2788969 10.87504941c.0226843-.0072697.045482-.0141776.0683834-.0207213v-5.48702617c-.5339141-.15458915-1.010808-.50724635-1.3091923-1.02631075-.3250243-.5654069-.375417-1.2133828-.1920986-1.78976165zm-3.2792592.01937664c-.032213-.03451814-.0633405-.07006301-.0933284-.1065807l-4.65228275 2.68607548c.22613906.60252987.19101548 1.29700672-.1545507 1.89814789-.33863917.58909106-.90720208.96384643-1.52809747 1.07798475v5.38522327c.03333849.0060771.0665287.0129078.09954354.020485zm2.2396735.62402429c-.1935087.05466883-.3977757.08391414-.6089791.08391414-.2790893 0-.5460666-.05106709-.7921133-.14438279l-6.25871398 10.84009255c.20560385.1667356.38502069.3731194.52604352.6159113.09334568.1623826.16403931.3315756.21305026.503927h12.6218354c.0489769-.1728171.1197109-.3423924.2131771-.5049845.1063339-.1849767.2353594-.3488002.3815678-.4900349zm.9488705 15.799898 4.7387374-2.7359915c-.0132789-.0516927-.0247181-.1038655-.0342896-.1564109h-12.52578259c-.01278195.0701208-.02889792.1395856-.048281.2081423l4.71556869 2.7226147c.4046474-.4146459.9699278-.6717905 1.5961975-.6717905.6067267 0 1.156211.2413463 1.5578496.6334359z" fill="#e535ab"/></svg>